<?xml version="1.0" encoding="utf-8"?>
<!-- Generator: Adobe Illustrator 20.1.0, SVG Export Plug-In . SVG Version: 6.00 Build 0)  -->
<svg version="1.1" id="Layer_1" xmlns="http://www.w3.org/2000/svg" xmlns:xlink="http://www.w3.org/1999/xlink" x="0px" y="0px"
	 viewBox="0 0 255.3 257.3" style="enable-background:new 0 0 255.3 257.3;" xml:space="preserve">
<style type="text/css">
	.st0{fill:#5A5B5B;}
	.st1{font-family:'BrandonGrotesque-Medium';}
	.st2{font-size:48px;}
	.st3{font-size:48.2227px;}
	.st4{font-size:47.9279px;}
	.st5{font-family:'ArialHebrew-Bold';}
	.st6{font-size:36px;}
	.st7{font-size:35.8882px;}
	.st8{font-size:36.0809px;}
	.st9{fill:none;stroke:#5A5B5B;stroke-width:6;stroke-miterlimit:10;}
	.st10{fill:#EC7223;}
	.st11{fill:#35459C;}
	.st12{fill:#E3E42C;}
	.st13{fill:#7A57A4;}
	.st14{fill:#E92F26;}
	.st15{fill:#049948;}
</style>
<title>Asset 1</title>
<g id="Layer_2">
	<g id="Layer_1-2">
		<text transform="matrix(0.2129 -0.9771 0.9771 0.2129 51.6666 133.7829)" class="st0 st1 st2">N</text>
		<text transform="matrix(0.6716 -0.7409 0.7409 0.6716 63.7968 91.8127)" class="st0 st1 st2">E</text>
		<text transform="matrix(0.9257 -0.3782 0.3782 0.9257 89.0174 67.0835)" class="st0 st1 st3">T</text>
		<text transform="matrix(0.9997 -2.530457e-02 2.530457e-02 0.9997 119.0667 57.1433)" class="st0 st1 st2">I</text>
		<text transform="matrix(0.9257 0.3782 -0.3782 0.9257 141.7566 56.434)" class="st0 st1 st3">V</text>
		<text transform="matrix(0.5905 0.8071 -0.8071 0.5905 177.2367 71.9434)" class="st0 st1 st2">O</text>
		<text transform="matrix(0.1302 0.9915 -0.9915 0.1302 200.8465 110.1928)" class="st0 st1 st4">T</text>
		<text transform="matrix(0.4939 0.8695 -0.8695 0.4939 34.0164 168.6632)" class="st0 st5 st6">ת</text>
		<text transform="matrix(0.82 0.5724 -0.5724 0.82 66.0167 209.3734)" class="st0 st5 st6">ו</text>
		<text transform="matrix(0.9819 0.1896 -0.1896 0.9819 98.8067 226.7334)" class="st0 st5 st6">ב</text>
		<text transform="matrix(0.973 -0.2307 0.2307 0.973 146.5364 228.9727)" class="st0 st5 st7">י</text>
		<text transform="matrix(0.7828 -0.6222 0.6222 0.7828 181.8266 216.0834)" class="st0 st5 st6">ת</text>
		<text transform="matrix(0.4191 -0.908 0.908 0.4191 217.3961 177.9236)" class="st0 st5 st8">נ</text>
		<circle class="st9" cx="128.2" cy="128.6" r="124.1"/>
		<path class="st10" d="M125.2,90.6c1.8-3.1,4.8-3.1,6.6,0l6.6,11.4c1.8,3.1,0.3,5.7-3.3,5.7h-13.2c-3.6,0-5.1-2.6-3.3-5.7
			L125.2,90.6z"/>
		<path class="st11" d="M131.8,170.1c-1.8,3.1-4.8,3.1-6.6,0l-6.6-11.4c-1.8-3.1-0.3-5.7,3.3-5.7H135c3.6,0,5.1,2.6,3.3,5.7
			L131.8,170.1z"/>
		<path class="st12" d="M157.4,124.8c-1.8,3.1-4.8,3.1-6.6,0l-6.5-11.5c-1.8-3.2-0.3-5.7,3.3-5.7l13.2,0.1c3.6,0,5.1,2.6,3.3,5.7
			L157.4,124.8z"/>
		<path class="st13" d="M96.2,151.6c-3.6,0-5.1-2.5-3.3-5.7l6.5-11.4c1.8-3.1,4.8-3.2,6.6,0l6.7,11.3c1.8,3.1,0.4,5.7-3.3,5.7
			L96.2,151.6z"/>
		<path class="st14" d="M92.5,113c-1.8-3.1-0.4-5.7,3.3-5.7l13.2-0.1c3.6,0,5.1,2.5,3.3,5.7l-6.6,11.4c-1.8,3.1-4.8,3.2-6.6,0
			L92.5,113z"/>
		<path class="st15" d="M164.1,145.9c1.9,3.1,0.5,5.7-3.2,5.8l-13.2,0.3c-3.6,0.1-5.2-2.4-3.4-5.6l6.3-11.6c1.7-3.2,4.7-3.2,6.6-0.1
			L164.1,145.9z"/>
	</g>
</g>
</svg>
